<svg width="23" height="24" viewBox="0 0 23 24" fill="none" xmlns="http://www.w3.org/2000/svg">
<path d="M22.0779 18.7367L18.3625 14.9359L15.5047 13.728C16.4562 12.3437 16.966 10.6923 16.9642 9C16.9642 4.45092 13.3464 0.75 8.89957 0.75C4.45272 0.75 0.834961 4.45092 0.834961 9C0.834961 13.5491 4.45272 17.25 8.89957 17.25C10.5682 17.2519 12.1959 16.7214 13.5559 15.7323L14.7335 18.648L18.4488 22.449C18.6871 22.6927 18.9699 22.8861 19.2813 23.018C19.5926 23.15 19.9263 23.2179 20.2633 23.2179C20.6002 23.2179 20.9339 23.15 21.2452 23.0181C21.5566 22.8862 21.8395 22.6928 22.0778 22.4491C22.316 22.2053 22.5051 21.9159 22.634 21.5975C22.763 21.279 22.8294 20.9376 22.8294 20.5929C22.8294 20.2482 22.763 19.9068 22.6341 19.5883C22.5051 19.2698 22.3161 18.9805 22.0779 18.7367V18.7367ZM2.30125 9C2.30125 5.27812 5.26133 2.25 8.89957 2.25C12.5378 2.25 15.4979 5.27812 15.4979 9C15.4979 12.7219 12.5378 15.75 8.89957 15.75C5.26133 15.75 2.30125 12.7219 2.30125 9ZM21.041 21.3883C20.8346 21.599 20.5549 21.7173 20.2633 21.7173C19.9718 21.7173 19.6921 21.599 19.4857 21.3883L15.977 17.799L14.8822 15.088L17.5324 16.208L21.0411 19.7973C21.247 20.0085 21.3626 20.2946 21.3626 20.5928C21.3626 20.8911 21.2469 21.1772 21.041 21.3883V21.3883Z" fill="#272727"/>
</svg>
